<?xml version="1.0" standalone="no"?>
<!DOCTYPE svg PUBLIC "-//W3C//DTD SVG 20010904//EN"
 "http://www.w3.org/TR/2001/REC-SVG-20010904/DTD/svg10.dtd">
<svg version="1.0" xmlns="http://www.w3.org/2000/svg"
 width="680.000000pt" height="960.000000pt" viewBox="0 0 680.000000 960.000000"
 preserveAspectRatio="xMidYMid meet">

<g transform="translate(0.000000,960.000000) scale(0.100000,-0.100000)"
fill="#000000" stroke="none">
<path d="M4415 8090 c-131 -28 -256 -103 -326 -197 -86 -114 -159 -345 -159
-504 0 -174 68 -308 183 -363 58 -28 100 -69 128 -124 25 -49 24 -59 -10 -65
-32 -7 -64 -61 -76 -129 -6 -31 -13 -39 -42 -49 -25 -8 -39 -21 -49 -45 -17
-40 -48 -63 -97 -71 l-35 -5 21 58 c36 105 11 157 -117 243 -94 63 -143 88
-316 156 -129 51 -307 103 -411 120 -32 5 -37 10 -42 39 -6 39 -82 158 -129
203 -40 39 -66 49 -188 74 -51 11 -118 30 -148 44 -29 13 -75 27 -102 31 -45
6 -54 3 -137 -44 -55 -32 -114 -57 -157 -67 -144 -33 -186 -73 -246 -231 -7
-19 -19 -21 -132 -27 -220 -12 -432 -60 -595 -137 -170 -80 -243 -168 -230
-279 11 -91 76 -235 172 -381 13 -19 48 -75 79 -125 140 -225 181 -284 231
-335 l55 -55 -15 -49 c-24 -78 -20 -96 31 -151 49 -54 76 -99 92 -156 10 -38
2 -223 -18 -389 -5 -47 -14 -159 -20 -250 -21 -334 -44 -531 -105 -875 -29
-164 -28 -226 4 -278 l20 -32 -46 -105 c-81 -189 -180 -434 -206 -510 -81
-240 -134 -528 -123 -675 8 -122 17 -141 110 -243 46 -51 111 -134 142 -185
32 -50 99 -153 149 -227 116 -173 160 -258 152 -291 -4 -14 -23 -33 -47 -47
-41 -23 -53 -41 -65 -95 -10 -48 -74 -101 -158 -132 -80 -29 -148 -78 -172
-126 -23 -43 -19 -102 8 -127 38 -36 131 -62 219 -62 180 0 338 59 488 181 25
20 70 51 100 69 118 71 151 131 116 215 -9 20 -15 57 -14 81 2 51 -19 86 -61
104 -24 9 -33 22 -42 54 -5 22 -13 50 -16 61 -3 11 -27 72 -54 135 -52 124
-94 242 -159 440 -54 167 -61 279 -23 355 127 251 241 394 456 572 l98 81 151
-4 152 -4 34 -32 c45 -44 227 -248 283 -319 106 -135 329 -392 421 -485 l99
-102 -15 -133 c-23 -203 -31 -371 -18 -396 17 -30 94 -53 179 -53 72 0 73 0
73 -25 0 -15 11 -37 28 -52 27 -25 29 -25 144 -20 l116 5 -18 -66 c-21 -74
-67 -201 -79 -217 -5 -5 -11 -22 -15 -38 -3 -15 -11 -27 -16 -27 -6 0 -10 -8
-10 -19 0 -10 -8 -29 -18 -42 -10 -13 -21 -31 -24 -39 -3 -8 -31 -48 -63 -89
-84 -109 -98 -158 -59 -203 48 -52 252 -69 356 -29 58 23 72 36 190 181 69 86
77 103 80 171 1 27 7 49 13 49 5 1 29 5 52 9 l42 8 -6 -69 c-7 -87 5 -111 74
-150 53 -30 96 -73 124 -124 36 -67 171 -128 284 -128 85 0 138 17 165 51 41
53 21 112 -80 236 -44 54 -80 105 -80 112 0 8 -11 26 -26 40 -14 14 -22 30
-19 35 3 5 -4 22 -15 38 -21 28 -59 157 -60 199 0 14 8 24 23 28 12 4 52 20
89 36 47 21 75 27 97 23 16 -4 42 -3 56 0 22 6 25 11 25 52 0 40 2 45 18 39
114 -47 153 -53 207 -31 29 12 35 20 35 45 0 57 -40 368 -65 506 -14 77 -30
213 -35 303 -5 89 -17 238 -25 330 -9 92 -20 266 -24 387 l-8 219 24 35 c34
50 61 149 78 291 29 235 33 254 57 270 13 8 40 31 61 51 35 35 37 40 31 78 -5
32 -1 54 19 99 42 93 50 166 43 372 -19 543 -106 1151 -223 1560 -43 153 -160
313 -277 379 -30 16 -74 54 -100 85 -30 34 -58 57 -77 61 -26 6 -29 11 -29 46
0 22 -6 55 -14 74 -12 27 -21 34 -48 37 -30 3 -33 6 -31 33 5 63 11 72 54 79
32 5 54 18 92 56 28 28 56 50 63 50 6 0 22 11 35 25 14 14 35 25 51 25 18 0
42 13 67 35 21 19 47 35 58 35 51 0 49 16 -46 306 -105 320 -130 375 -205 465
-95 114 -205 168 -356 174 -47 2 -103 0 -125 -5z m-25 -175 c0 -37 -14 -54
-24 -29 -8 21 -8 59 0 67 13 13 24 -5 24 -38z m98 -36 c2 -59 1 -62 -13 -45
-19 25 -21 120 -2 114 7 -3 13 -28 15 -69z m109 -8 c14 -53 1 -70 -20 -26 -21
43 -22 65 -3 65 7 0 18 -17 23 -39z m140 -4 c29 -43 83 -191 83 -228 0 -52
-17 -31 -45 54 -15 45 -42 110 -61 145 -28 52 -31 62 -16 62 9 0 27 -15 39
-33z m115 -30 c13 -33 15 -54 9 -65 -8 -15 -11 -14 -19 8 -5 14 -17 42 -26 64
-20 48 -20 48 1 44 10 -2 25 -23 35 -51z m-528 -42 c20 -37 44 -50 74 -41 11
4 35 0 55 -9 20 -8 53 -15 72 -15 40 0 117 -46 136 -82 9 -17 8 -23 -5 -30
-28 -16 -104 -95 -110 -115 -9 -27 -103 -28 -111 -2 -3 10 -21 31 -40 48 -19
17 -35 37 -35 45 0 18 -43 46 -71 46 -12 0 -36 -11 -53 -24 -17 -13 -41 -26
-54 -30 -20 -7 -21 -5 -13 17 28 74 116 227 130 227 4 0 15 -16 25 -35z m-173
-90 c-23 -53 -41 -99 -41 -103 0 -4 -10 -18 -21 -32 -14 -17 -19 -19 -15 -7 3
10 13 43 22 75 16 56 56 144 77 171 26 32 16 -15 -22 -104z m-56 13 c-9 -44
-44 -122 -51 -116 -6 6 10 75 28 121 15 38 31 34 23 -5z m235 -164 c66 -27 89
-99 57 -174 -20 -46 -44 -67 -88 -75 -55 -10 -112 10 -149 52 -30 34 -32 40
-25 87 13 104 101 151 205 110z m392 -6 c27 -21 30 -52 8 -66 -16 -10 -24 -10
-40 0 -16 10 -23 10 -36 -4 -21 -21 -10 -56 22 -70 21 -10 28 -8 54 22 16 18
32 31 35 28 3 -2 10 -31 17 -63 11 -57 11 -58 -16 -82 -33 -28 -94 -31 -125
-5 -12 9 -33 43 -46 75 -18 46 -21 65 -14 90 12 44 20 53 54 71 36 19 66 20
87 4z m207 -87 c36 -66 18 -282 -27 -330 -19 -21 -23 -22 -17 -6 18 53 27 160
22 253 -6 99 1 123 22 83z m-412 -9 c16 -10 61 -123 63 -159 3 -47 1 -50 -45
-62 -37 -9 -51 -9 -75 4 -16 8 -33 15 -37 14 -30 -5 -35 2 -29 39 6 40 42 138
59 160 11 14 45 16 64 4z m-1892 -109 c-17 -71 -115 -183 -158 -183 -20 0 -16
8 33 58 30 31 66 78 78 105 25 53 59 67 47 20z m2397 5 c8 -22 -9 -147 -22
-163 -19 -22 -43 -20 -31 3 5 10 13 53 17 95 4 51 11 77 19 77 7 0 15 -6 17
-12z m-2567 -57 c-15 -22 -34 -46 -43 -53 -13 -11 -14 -9 -8 17 11 43 56 99
69 86 7 -7 2 -22 -18 -50z m1778 -11 c34 -6 63 -7 85 -1 27 8 32 7 32 -8 0 -9
6 -23 13 -30 10 -10 4 -20 -31 -51 -23 -21 -63 -47 -87 -57 -52 -21 -55 -33
-19 -62 42 -33 144 -29 209 7 l50 28 51 -28 c119 -66 275 -31 183 40 -19 15
-51 43 -72 62 -35 32 -37 37 -26 60 11 24 18 26 73 25 34 0 72 4 85 9 l24 8
-6 -78 c-7 -103 -29 -173 -72 -228 -19 -25 -30 -48 -25 -51 6 -3 5 -16 0 -31
-6 -14 -10 -39 -10 -55 l0 -29 -145 0 c-79 0 -166 5 -193 11 -47 10 -50 12
-56 47 -4 25 -23 58 -61 102 -30 36 -61 79 -70 96 -21 45 -44 138 -51 211 l-7
64 37 -25 c20 -14 60 -30 89 -36z m-1511 10 c-3 -28 -20 -50 -38 -50 -10 0
-11 6 -5 23 5 12 12 30 15 40 8 26 32 15 28 -13z m-415 3 c-4 -10 -11 -38 -18
-63 -6 -25 -13 -51 -15 -58 -7 -25 -24 -1 -24 33 0 42 29 105 48 105 9 0 12
-6 9 -17z m518 -15 c22 -54 29 -107 15 -123 -20 -24 -30 -18 -30 18 0 19 -7
56 -15 83 -8 27 -15 50 -15 52 0 1 7 2 16 2 8 0 21 -15 29 -32z m-663 -36 c-7
-22 -12 -49 -12 -61 0 -11 -4 -21 -10 -21 -17 0 -22 48 -10 87 17 52 21 56 33
44 7 -7 7 -22 -1 -49z m2926 5 c4 -41 -12 -51 -22 -13 -3 13 -9 32 -12 41 -5
13 -2 16 12 13 14 -2 20 -13 22 -41z m-2148 -27 c12 -29 8 -60 -7 -60 -5 0
-15 20 -24 45 -16 42 -16 45 1 45 10 0 23 -13 30 -30z m-860 -19 c0 -10 -7
-24 -15 -31 -13 -10 -15 -9 -15 12 0 14 3 28 7 31 12 13 23 7 23 -12z m73
-114 c25 -15 75 -62 111 -106 46 -56 84 -91 128 -116 67 -40 78 -50 78 -77 0
-24 -18 -23 -82 7 -69 32 -133 33 -179 2 -48 -32 -63 -66 -41 -91 27 -30 76
-46 139 -46 53 0 63 3 107 40 26 22 52 40 57 40 36 0 -41 -78 -111 -112 -35
-17 -65 -23 -138 -24 -52 -1 -96 -5 -99 -8 -9 -9 17 -127 43 -190 13 -33 24
-71 24 -85 l-1 -26 -22 26 c-21 23 -51 92 -102 232 -10 27 -24 47 -32 47 -9 0
-13 -6 -9 -15 12 -32 -5 -13 -20 23 -12 29 -15 57 -10 132 7 111 -1 150 -35
169 -22 12 -33 11 -95 -8 -192 -63 -361 -151 -407 -212 -16 -23 -18 -32 -8
-61 14 -41 147 -187 235 -257 l64 -51 -57 -123 c-32 -67 -75 -167 -96 -222
-22 -55 -40 -102 -42 -104 -1 -2 -14 4 -28 13 -34 22 -97 115 -346 510 -112
178 -162 337 -129 416 27 66 147 146 310 207 157 59 453 104 651 99 84 -2 103
-6 142 -29z m555 -20 c28 -22 52 -45 52 -51 -1 -22 -39 -56 -63 -56 -33 0 -82
-39 -67 -54 8 -8 -7 -19 -55 -42 l-66 -32 -65 36 c-60 34 -79 52 -52 52 19 0
-32 48 -58 54 -13 4 -24 10 -24 14 0 7 61 32 195 78 39 13 83 30 100 38 33 16
31 17 103 -37z m440 13 c269 -54 633 -212 736 -319 55 -58 51 -111 -18 -249
-65 -127 -209 -326 -411 -566 -33 -39 -82 -102 -109 -139 -28 -37 -53 -67 -57
-67 -11 0 -49 122 -65 208 -7 42 -13 138 -13 212 l0 135 60 45 c101 75 249
241 249 280 0 23 -40 58 -161 138 -120 80 -222 137 -261 146 -40 9 -54 -13
-78 -121 -33 -157 -68 -256 -111 -323 -22 -34 -42 -60 -45 -58 -6 6 18 74 45
126 26 50 26 52 2 52 -13 0 -28 -21 -53 -77 -20 -43 -39 -94 -43 -113 -10 -48
-45 -130 -56 -130 -14 0 -10 44 10 111 36 117 52 201 41 214 -7 8 -35 11 -95
7 l-86 -4 -54 54 c-56 56 -67 84 -39 95 10 4 31 -10 60 -38 44 -43 46 -44 110
-42 74 1 97 15 115 70 14 44 2 59 -59 71 -52 11 -114 7 -181 -14 -24 -7 -48
-11 -53 -8 -20 13 -3 27 75 64 96 46 111 57 166 132 95 128 172 149 379 108z
m-1201 -192 c4 -7 8 -71 9 -143 0 -120 2 -134 26 -180 14 -27 38 -61 52 -74
14 -13 35 -49 47 -80 30 -82 58 -122 95 -137 52 -22 84 -72 84 -130 0 -28 -5
-55 -12 -62 -14 -14 -48 -16 -48 -3 0 4 -11 20 -25 35 -17 18 -34 26 -58 26
-24 0 -41 8 -63 31 -31 33 -82 62 -129 73 -86 21 -389 282 -441 379 -14 26
-14 31 3 49 37 42 132 97 278 161 83 37 155 67 162 67 6 0 15 -6 20 -12z
m1278 -81 c111 -66 216 -139 235 -162 22 -27 1 -63 -93 -161 -102 -107 -242
-219 -287 -229 -16 -3 -34 -13 -41 -21 -6 -8 -27 -14 -47 -14 -28 0 -43 -8
-72 -39 -20 -21 -51 -42 -69 -46 -17 -4 -46 -23 -65 -42 -44 -47 -66 -40 -66
19 0 45 19 81 65 127 15 14 36 40 48 58 12 17 44 60 71 95 70 91 103 168 132
309 35 165 41 181 68 173 11 -4 66 -34 121 -67z m-940 -40 c-5 -24 -2 -37 9
-46 20 -17 56 2 56 29 0 23 9 25 35 7 17 -13 16 -16 -19 -42 -32 -25 -42 -27
-96 -23 -75 5 -98 23 -74 57 15 20 65 50 87 51 4 0 5 -15 2 -33z m480 3 c25
-10 26 -10 9 -42 -22 -42 -30 -48 -80 -48 -33 0 -46 6 -74 35 -37 38 -37 39 1
48 21 5 28 2 37 -18 16 -36 51 -33 65 5 6 17 12 30 14 30 1 0 13 -4 28 -10z
m-243 -118 c10 -16 36 -42 59 -58 39 -26 49 -29 120 -28 l78 2 -6 -32 c-3 -17
-17 -69 -31 -116 -32 -108 -37 -143 -23 -168 9 -17 7 -28 -14 -58 -38 -56 -31
-154 11 -154 57 0 -61 -102 -139 -121 -60 -14 -156 -5 -215 21 -44 20 -132 86
-132 100 0 5 13 11 29 15 23 5 33 15 42 42 17 52 5 99 -35 144 -23 24 -36 49
-36 67 0 15 -16 72 -35 127 -51 146 -53 140 58 141 50 0 102 6 114 12 17 9 23
9 27 -1 3 -8 9 -6 20 8 20 26 80 85 86 85 3 0 13 -13 22 -28z m-643 -419 c25
-13 52 -23 62 -23 10 0 41 -20 69 -45 38 -34 59 -45 84 -45 29 0 37 -6 64 -49
37 -61 129 -135 202 -162 46 -17 72 -20 155 -17 91 3 105 6 157 36 38 22 74
54 103 92 62 81 73 90 102 90 16 0 39 15 68 45 39 39 48 44 75 39 23 -5 34 -2
44 11 7 10 33 25 58 35 l45 17 6 -161 c4 -115 12 -180 25 -226 36 -121 68
-180 98 -180 7 0 25 17 39 37 l25 38 0 -38 c0 -43 -19 -93 -60 -157 -23 -36
-29 -56 -28 -100 1 -36 -6 -70 -20 -100 -27 -57 -28 -157 -7 -705 22 -578 45
-710 182 -1029 35 -82 60 -153 56 -157 -9 -8 -169 -55 -302 -89 -47 -12 -174
-30 -284 -40 -243 -24 -397 -17 -622 30 -331 68 -575 112 -658 120 -49 5 -91
10 -93 13 -2 2 8 32 22 67 l26 63 -26 51 c-31 62 -32 81 -5 233 11 65 24 147
30 183 5 36 16 103 24 150 19 112 32 240 55 560 11 146 25 306 30 355 6 50 11
135 12 190 2 89 -1 106 -24 158 -15 31 -49 81 -77 110 l-50 53 23 79 c33 114
98 281 162 414 l54 113 27 -18 c16 -10 48 -29 72 -41z m1692 -309 c-126 -560
-191 -979 -207 -1349 -8 -175 3 -245 48 -320 24 -38 28 -52 19 -65 -44 -60
-39 -82 25 -116 56 -29 72 -81 90 -284 17 -187 41 -285 83 -332 28 -33 28 -34
17 -98 l-12 -64 -55 104 c-30 58 -64 128 -76 155 -12 28 -36 82 -53 120 -57
126 -90 237 -120 400 -31 168 -32 174 -61 921 l-12 302 28 53 c22 42 28 67 27
108 0 47 5 64 38 119 41 67 56 128 47 191 -5 41 -11 33 133 209 36 44 66 79
67 78 2 -1 -10 -61 -26 -132z m258 -2244 c1 -122 -9 -178 -22 -128 -4 12 -7
40 -7 60 0 72 -30 109 -59 74 -18 -22 -35 -118 -27 -158 4 -20 23 -60 42 -88
20 -29 33 -54 30 -57 -10 -11 -58 54 -94 128 -20 41 -41 72 -47 69 -5 -3 -9
-7 -8 -10 1 -3 11 -29 22 -58 24 -61 11 -61 -20 0 -27 52 -49 157 -49 234 l0
60 113 15 c100 13 113 13 119 -1 4 -8 7 -71 7 -140z m1449 45 c2 -2 -2 -38 -7
-82 -12 -86 -53 -218 -59 -190 -2 9 3 39 12 65 18 55 25 156 11 160 -5 2 -15
-19 -21 -45 l-12 -48 -1 79 -1 78 38 -7 c20 -4 38 -8 40 -10z m-1210 -90 c1
-1 -2 -33 -7 -71 -5 -38 -12 -125 -16 -194 -3 -69 -12 -242 -20 -385 -17 -310
-26 -805 -15 -805 18 0 22 46 31 305 10 295 47 994 57 1090 l7 59 95 -3 c52
-1 98 -6 102 -10 4 -3 4 -90 0 -191 -11 -278 3 -856 27 -1147 21 -257 25 -283
43 -283 12 0 4 224 -13 377 -12 110 -24 1066 -14 1168 l7 75 56 0 c32 0 87 -3
125 -7 l67 -6 0 -34 c0 -36 -47 -375 -81 -582 -11 -68 -19 -136 -17 -150 3
-26 3 -26 15 -5 21 36 123 660 123 749 l0 25 119 0 c65 0 138 -3 163 -6 l44
-6 -8 -62 c-4 -33 -14 -126 -23 -206 -8 -80 -17 -156 -20 -170 -13 -66 -45
-351 -55 -485 -17 -241 -50 -556 -85 -818 -4 -29 -2 -38 7 -35 22 8 66 308 97
663 27 307 45 474 75 710 13 105 30 238 36 298 l13 107 56 1 c31 0 68 2 84 4
l27 4 1 -87 c1 -180 18 -553 34 -722 8 -96 20 -251 25 -345 6 -103 22 -239 40
-343 28 -160 60 -419 60 -484 0 -27 -2 -28 -47 -28 -27 0 -68 9 -92 20 -24 11
-51 20 -61 20 -21 0 -27 52 -37 317 -6 185 4 362 33 548 16 103 18 155 5 155
-12 0 -38 -146 -63 -355 -19 -166 -20 -196 -9 -395 6 -118 11 -248 11 -287 l0
-73 -46 0 c-27 0 -77 -12 -125 -32 l-80 -31 -157 37 c-173 40 -181 41 -263 24
-50 -10 -68 -9 -145 10 -132 32 -165 35 -240 23 -116 -20 -200 -19 -221 2 -17
17 -16 23 11 156 l28 138 -16 419 c-9 230 -16 494 -16 586 0 107 -4 169 -11
173 -6 4 -13 5 -15 2 -9 -9 -4 -538 7 -762 16 -316 14 -435 -8 -535 l-19 -85
-39 -7 c-43 -7 -101 -2 -153 14 -42 12 -46 33 -38 166 6 101 53 547 76 732 12
95 23 206 45 455 8 94 18 186 21 205 26 172 31 181 74 135 18 -19 33 -25 55
-23 44 4 46 46 5 98 -34 43 -50 88 -49 135 0 26 2 27 9 10 5 -11 9 -35 9 -53
1 -25 7 -35 27 -44 47 -22 60 -2 79 115 l6 38 92 -7 c51 -3 93 -8 95 -9z
m-2358 -1254 c0 -13 -73 -72 -84 -68 -22 7 -13 24 27 49 45 30 57 33 57 19z
m15 -138 c-8 -46 -12 -53 -31 -53 -18 0 -18 23 1 60 22 43 39 39 30 -7z m220
-460 c78 -195 93 -237 105 -303 11 -62 11 -63 -17 -92 -77 -80 -311 -161 -329
-114 -3 8 8 47 24 88 l30 73 -25 49 c-14 28 -56 98 -94 156 -38 59 -69 109
-69 112 0 3 26 10 58 17 68 15 210 81 236 110 11 12 22 21 26 21 4 0 29 -53
55 -117z m2264 -244 l76 -21 1 -106 c0 -66 -4 -110 -10 -114 -19 -13 -66 -9
-66 5 0 18 -49 64 -83 76 -16 6 -46 11 -67 11 l-39 0 14 43 c8 23 19 61 25 85
10 38 14 42 42 42 17 0 65 -9 107 -21z m305 -36 c-4 -14 -16 -83 -28 -152
l-21 -126 -53 -9 c-29 -5 -55 -7 -57 -4 -11 11 -35 169 -35 231 0 66 0 67 28
68 15 0 36 4 47 9 11 5 44 9 73 9 52 1 52 1 46 -26z m232 -29 c29 -6 32 -10
37 -53 3 -25 9 -54 12 -63 6 -15 2 -18 -22 -18 -36 0 -101 -32 -120 -60 -33
-47 -143 -10 -129 43 2 12 8 51 12 87 4 36 10 75 15 86 l8 22 78 -19 c43 -11
92 -22 109 -25z m-2620 -49 c11 -17 15 -38 12 -67 -3 -29 1 -55 14 -80 10 -21
18 -45 18 -54 0 -33 -35 -73 -99 -114 -36 -24 -97 -67 -136 -96 -168 -126
-289 -169 -460 -162 -138 6 -202 40 -189 102 15 75 62 116 186 165 31 13 74
38 96 57 22 19 46 34 52 34 8 0 10 9 6 25 -7 26 19 95 35 95 5 0 6 -13 3 -29
-5 -23 -1 -32 23 -51 23 -18 36 -21 73 -17 149 18 353 137 337 198 -7 27 10
23 29 -6z m1978 -69 c18 -8 41 -24 50 -37 16 -23 15 -24 -13 -34 -16 -5 -32
-13 -36 -17 -3 -3 -22 -2 -41 4 -19 5 -43 6 -54 3 -27 -8 -32 8 -15 48 20 49
49 58 109 33z m692 -44 c11 -8 39 -71 33 -76 -2 -2 -25 -6 -50 -9 -40 -5 -49
-3 -68 17 l-21 22 22 21 c34 30 64 39 84 25z m-488 -138 c3 -100 11 -82 -99
-226 -84 -110 -113 -136 -177 -154 -106 -31 -275 -2 -288 50 -7 31 7 61 65
141 78 105 94 124 85 100 -18 -51 -16 -83 5 -94 27 -15 49 -3 95 51 28 34 37
41 47 31 17 -17 49 -16 49 0 0 8 -11 19 -25 25 -22 10 -24 15 -15 32 10 19 12
19 34 4 30 -19 46 -1 22 25 -25 27 -10 54 25 46 30 -7 37 3 17 23 -20 20 3 31
72 34 36 2 70 3 75 3 6 -1 11 -41 13 -91z m-249 67 c24 -16 -6 -43 -43 -39
-23 2 -32 9 -34 26 -3 19 1 22 30 22 18 0 39 -4 47 -9z m547 -6 c72 0 106 -19
77 -41 -17 -12 -16 -13 8 -14 32 0 59 -47 34 -56 -25 -10 -17 -27 10 -22 18 4
29 -1 40 -18 14 -22 14 -25 -5 -36 -30 -19 -24 -31 11 -24 26 5 38 0 66 -24
40 -36 87 -40 103 -10 6 11 8 26 4 33 -15 26 50 -40 82 -84 46 -62 54 -117 23
-152 -20 -23 -35 -28 -94 -33 -116 -9 -228 40 -281 124 -33 51 -80 94 -134
122 -63 32 -71 62 -49 187 10 54 14 63 28 56 9 -4 43 -8 77 -8z m244 -45 c11
-11 20 -24 20 -30 0 -14 -84 -12 -98 2 -19 19 -14 36 11 41 42 8 47 7 67 -13z
m-846 -16 c19 -7 20 -14 2 -37 -16 -21 -46 -13 -46 12 0 29 14 37 44 25z m886
-53 c0 -5 3 -16 6 -24 8 -23 -62 -28 -82 -6 -9 10 -13 23 -9 28 8 13 85 15 85
2z m-919 -38 c-33 -61 -60 -71 -40 -15 7 21 18 32 30 32 16 0 18 -4 10 -17z
m943 -49 c16 -42 -9 -47 -44 -9 l-23 25 30 0 c19 0 33 -6 37 -16z"/>
<path d="M4200 7515 c0 -8 9 -24 19 -34 11 -11 21 -27 23 -38 4 -22 43 -29 64
-13 7 7 14 26 14 43 0 29 -1 29 -40 24 -33 -4 -40 -2 -45 14 -7 22 -35 26 -35
4z"/>
<path d="M2442 6558 c6 -18 28 -21 28 -4 0 9 -7 16 -16 16 -9 0 -14 -5 -12
-12z"/>
<path d="M2505 6559 c-10 -15 1 -23 20 -15 9 3 13 10 10 16 -8 13 -22 13 -30
-1z"/>
<path d="M2445 6422 c-61 -4 -87 -11 -79 -23 4 -7 27 -8 64 -4 31 4 83 2 115
-4 56 -11 92 -3 65 14 -16 10 -116 21 -165 17z"/>
<path d="M1827 6073 c-34 -50 -91 -172 -83 -180 12 -12 37 21 86 114 27 53 50
97 50 99 0 2 -6 4 -14 4 -7 0 -25 -17 -39 -37z"/>
<path d="M3097 6083 c-11 -10 -8 -213 3 -279 18 -101 20 -108 32 -96 8 8 8 36
-1 100 -6 48 -11 132 -11 185 0 89 -5 109 -23 90z"/>
<path d="M1949 6053 c-28 -71 -38 -296 -18 -410 6 -35 15 -63 20 -63 11 0 11
-7 9 190 0 91 4 190 10 220 16 77 17 82 3 87 -7 3 -18 -8 -24 -24z"/>
<path d="M2966 5963 c-13 -209 -40 -386 -91 -593 -18 -74 -36 -144 -41 -155
-7 -20 -7 -20 14 -1 31 27 67 149 101 339 48 262 64 505 35 514 -8 3 -13 -32
-18 -104z"/>
<path d="M2070 6001 c0 -87 73 -384 128 -518 33 -80 110 -209 147 -243 43 -40
30 0 -29 94 -80 127 -133 281 -181 521 -14 72 -28 140 -30 153 -8 34 -35 28
-35 -7z"/>
<path d="M2781 5923 c-44 -85 -136 -237 -219 -358 -53 -79 -59 -96 -25 -75 58
38 303 437 303 495 0 34 -22 11 -59 -62z"/>
<path d="M1668 3843 c-58 -49 -88 -93 -53 -79 30 11 125 88 119 97 -9 16 -32
10 -66 -18z"/>
<path d="M1800 3720 c-82 -8 -149 -29 -129 -40 8 -5 34 -4 59 0 25 5 102 12
173 16 70 4 127 10 127 14 0 18 -107 23 -230 10z"/>
<path d="M1342 1418 c5 -15 118 -24 118 -10 0 11 -48 22 -92 22 -19 0 -28 -4
-26 -12z"/>
<path d="M1330 1351 c0 -6 7 -14 16 -19 13 -7 14 -13 6 -29 -15 -27 2 -43 44
-43 19 0 34 -6 38 -15 8 -22 36 -18 36 4 0 29 -18 71 -30 71 -5 0 -10 -7 -10
-15 0 -8 -9 -15 -19 -15 -29 0 -15 38 15 42 49 6 27 23 -33 26 -37 2 -63 -1
-63 -7z"/>
</g>
</svg>
